<?xml version="1.0" encoding="utf-8"?>
<!-- Generator: Adobe Illustrator 16.0.0, SVG Export Plug-In . SVG Version: 6.00 Build 0)  -->
<!DOCTYPE svg PUBLIC "-//W3C//DTD SVG 1.1//EN" "http://www.w3.org/Graphics/SVG/1.1/DTD/svg11.dtd">
<svg version="1.1" id="圖層_1" xmlns="http://www.w3.org/2000/svg" xmlns:xlink="http://www.w3.org/1999/xlink" x="0px" y="0px"
	 width="50px" height="50px" viewBox="0 0 50 50" enable-background="new 0 0 50 50" xml:space="preserve">
<circle fill="#A5897E" stroke="#F3F3F3" stroke-width="1.9199" stroke-miterlimit="10" cx="25.041" cy="25.042" r="23.958"/>
<path fill="#F3F3F3" d="M35.86,9.958H13.975c-2.229,0-4.037,1.808-4.037,4.037v21.884c0,2.229,1.808,4.037,4.037,4.037h10.792
	l0.019-10.706h-2.781c-0.361,0-0.655-0.293-0.657-0.652l-0.012-3.451c-0.001-0.364,0.292-0.659,0.656-0.659h2.775v-3.334
	c0-3.869,2.364-5.976,5.815-5.976h2.832c0.364,0,0.657,0.293,0.657,0.655v2.91c0,0.362-0.293,0.656-0.655,0.656l-1.737,0.001
	c-1.879,0-2.243,0.891-2.243,2.2v2.888h4.126c0.393,0,0.697,0.343,0.651,0.733l-0.409,3.449c-0.04,0.331-0.319,0.58-0.651,0.58
	h-3.698l-0.019,10.704h6.424c2.228,0,4.035-1.806,4.035-4.035V13.995C39.896,11.765,38.089,9.958,35.86,9.958z"/>
</svg>
