<?xml version="1.0" encoding="utf-8"?>
<!-- Generator: Adobe Illustrator 16.0.0, SVG Export Plug-In . SVG Version: 6.00 Build 0)  -->
<!DOCTYPE svg PUBLIC "-//W3C//DTD SVG 1.1//EN" "http://www.w3.org/Graphics/SVG/1.1/DTD/svg11.dtd">
<svg version="1.1" id="圖層_1" xmlns="http://www.w3.org/2000/svg" xmlns:xlink="http://www.w3.org/1999/xlink" x="0px" y="0px"
	 width="50px" height="50px" viewBox="0 0 50 50" enable-background="new 0 0 50 50" xml:space="preserve">
<circle fill="#A5897E" stroke="#F3F3F3" stroke-width="1.9199" stroke-miterlimit="10" cx="25.041" cy="25.042" r="23.958"/>
<path fill="#F3F3F3" d="M40.35,18.616c-0.074-1.636-0.336-2.753-0.713-3.731c-0.386-1.025-0.992-1.955-1.775-2.722
	c-0.767-0.783-1.696-1.387-2.723-1.773c-0.978-0.38-2.093-0.64-3.732-0.714c-1.639-0.075-2.161-0.094-6.336-0.094
	c-4.174,0-4.698,0.019-6.338,0.093c-1.635,0.074-2.752,0.334-3.731,0.715c-1.025,0.386-1.954,0.991-2.722,1.773
	c-0.782,0.767-1.387,1.697-1.773,2.722c-0.38,0.978-0.64,2.096-0.714,3.731c-0.074,1.64-0.093,2.163-0.093,6.337
	c0,4.174,0.019,4.699,0.093,6.338c0.075,1.635,0.335,2.754,0.714,3.732c0.386,1.025,0.992,1.955,1.773,2.721
	c0.767,0.781,1.696,1.389,2.722,1.775c0.979,0.381,2.095,0.637,3.73,0.713c1.64,0.074,2.164,0.092,6.338,0.092
	c4.175,0,4.697-0.018,6.336-0.092c1.64-0.076,2.755-0.332,3.733-0.713c2.064-0.799,3.698-2.432,4.497-4.496
	c0.378-0.979,0.639-2.098,0.712-3.732c0.077-1.641,0.093-2.164,0.093-6.338C40.44,20.779,40.425,20.255,40.35,18.616z
	 M37.582,31.164c-0.068,1.498-0.319,2.313-0.528,2.854c-0.516,1.342-1.578,2.4-2.918,2.918c-0.541,0.209-1.355,0.461-2.854,0.527
	c-1.621,0.076-2.104,0.092-6.211,0.092c-4.105,0-4.591-0.016-6.211-0.092c-1.499-0.064-2.313-0.318-2.854-0.527
	c-0.667-0.248-1.271-0.639-1.767-1.15c-0.51-0.496-0.903-1.098-1.15-1.768c-0.21-0.541-0.46-1.355-0.529-2.854
	c-0.074-1.621-0.089-2.107-0.089-6.211c0-4.105,0.015-4.59,0.089-6.211c0.069-1.498,0.319-2.313,0.529-2.854
	c0.247-0.667,0.64-1.271,1.15-1.767c0.497-0.51,1.1-0.903,1.767-1.15c0.541-0.21,1.356-0.46,2.854-0.529
	c1.62-0.074,2.107-0.089,6.211-0.089l0,0c4.103,0,4.588,0.015,6.211,0.089c1.499,0.068,2.313,0.318,2.854,0.529
	c0.667,0.246,1.271,0.639,1.768,1.149c0.511,0.497,0.903,1.1,1.15,1.768c0.209,0.542,0.459,1.356,0.528,2.854
	c0.075,1.621,0.092,2.106,0.092,6.211C37.674,29.057,37.657,29.543,37.582,31.164z"/>
<path fill="#F3F3F3" d="M25.072,17.06c-4.36,0-7.894,3.534-7.894,7.893s3.534,7.895,7.894,7.895c4.359,0,7.894-3.535,7.894-7.895
	S29.432,17.06,25.072,17.06z M25.072,30.078c-2.831,0-5.125-2.295-5.124-5.125c0-2.831,2.294-5.124,5.124-5.124
	c2.83,0.001,5.123,2.294,5.123,5.124C30.195,27.783,27.902,30.078,25.072,30.078z"/>
<path fill="#F3F3F3" d="M35.122,16.748c0,1.019-0.827,1.845-1.845,1.845c-1.021,0-1.845-0.826-1.845-1.845
	c0-1.018,0.824-1.845,1.845-1.845C34.295,14.903,35.122,15.729,35.122,16.748z"/>
</svg>
